<svg width="31" height="19" viewBox="0 0 31 19" fill="none" xmlns="http://www.w3.org/2000/svg">
<path d="M30.7237 16.4327C30.6404 16.2932 30.125 15.1732 27.6448 12.8713C25.0483 10.4609 25.3971 10.8523 28.5245 6.68442C30.4292 4.14611 31.1907 2.596 30.9523 1.93332C30.7256 1.30165 29.3247 1.46829 29.3247 1.46829L24.6666 1.49541C24.6666 1.49541 24.3217 1.44891 24.064 1.60198C23.8141 1.75312 23.6532 2.1019 23.6532 2.1019C23.6532 2.1019 22.915 4.06667 21.9307 5.73692C19.8555 9.26149 19.0242 9.4475 18.6851 9.22855C17.8965 8.71895 18.0941 7.17852 18.0941 6.08569C18.0941 2.66963 18.6115 1.24546 17.0846 0.877306C16.577 0.755234 16.2049 0.673853 14.9087 0.660289C13.2462 0.642851 11.8375 0.666102 11.0411 1.05557C10.5102 1.31521 10.1014 1.89457 10.3513 1.92751C10.6594 1.9682 11.357 2.11546 11.727 2.61925C12.2056 3.26836 12.1882 4.72934 12.1882 4.72934C12.1882 4.72934 12.4634 8.74995 11.5468 9.24986C10.9171 9.59283 10.0549 8.89334 8.20441 5.69429C7.25691 4.05698 6.53998 2.24528 6.53998 2.24528C6.53998 2.24528 6.40241 1.90813 6.15632 1.72793C5.85793 1.50898 5.4394 1.43922 5.4394 1.43922L1.00994 1.46635C1.00994 1.46635 0.345333 1.48573 0.10119 1.77444C-0.115826 2.03214 0.0837512 2.56306 0.0837512 2.56306C0.0837512 2.56306 3.55213 10.676 7.4778 14.7663C11.0799 18.5157 15.1683 18.2696 15.1683 18.2696H17.0207C17.0207 18.2696 17.5807 18.2076 17.8655 17.8995C18.129 17.6166 18.1193 17.0857 18.1193 17.0857C18.1193 17.0857 18.0825 14.5997 19.2374 14.2335C20.3748 13.8731 21.8357 16.6362 23.3839 17.6999C24.5542 18.5041 25.4436 18.3277 25.4436 18.3277L29.5844 18.2696C29.5844 18.2696 31.7507 18.1359 30.7237 16.4327Z" fill="white"/>
</svg>
