<svg width="139" height="50" viewBox="0 0 139 50" fill="none" xmlns="http://www.w3.org/2000/svg">
<path d="M32.0654 50.0002C32.0577 49.3083 32.05 48.6164 32.0424 47.9322C32.0347 47.0866 32.05 46.2409 32.0347 45.3953C32.027 45.0263 32.1804 44.8802 32.5333 44.8956C32.7481 44.9033 32.9706 44.8956 33.1854 44.8956C67.9967 44.8956 102.808 44.8956 137.612 44.8956C137.804 44.8956 137.995 44.8956 138.187 44.8956C138.617 44.8879 138.716 44.9648 138.716 45.3953C138.732 46.8329 138.732 48.2628 138.732 49.7003C138.732 49.8003 138.709 49.9002 138.693 50.0079C103.153 50.0002 67.6055 50.0002 32.0654 50.0002Z" fill="#24242E"/>
<path d="M43.4261 13.9069C43.8864 14.1068 44.2622 14.2375 44.5921 14.4297C45.7735 15.1292 46.4869 16.1747 46.7093 17.5278C46.9548 19.0192 46.9548 20.5105 46.4485 21.9635C46.0266 23.1858 45.2058 24.0545 44.0551 24.6234C43.1269 25.0846 42.1527 25.2538 41.1248 25.2461C38.3632 25.2307 35.6016 25.2461 32.84 25.2461C32.3414 25.2461 32.28 25.1846 32.28 24.7003C32.28 17.8045 32.28 10.9164 32.28 4.02069C32.28 3.53637 32.3414 3.47487 32.84 3.47487C35.3178 3.47487 37.8032 3.45949 40.281 3.48256C41.6004 3.49793 42.8968 3.63631 44.1012 4.28206C45.574 5.0662 46.3795 6.29621 46.4715 7.92598C46.5329 9.00224 46.5482 10.1016 46.1954 11.1548C45.8425 12.2156 45.1828 12.9998 44.1779 13.4995C43.9554 13.6302 43.7329 13.7455 43.4261 13.9069ZM36.7062 18.7424C36.6986 18.7424 36.7062 18.7424 36.7062 18.7424C36.6986 19.6495 36.6986 20.5567 36.6986 21.4715C36.6986 21.7636 36.8213 21.9327 37.1282 21.9251C37.9183 21.9174 38.7161 21.9481 39.5062 21.9097C40.6415 21.8559 41.6157 21.4407 42.0376 20.3107C42.2524 19.7187 42.2985 19.0345 42.2754 18.3965C42.2141 16.6744 41.0327 15.5982 39.3144 15.6059C38.624 15.6059 37.9336 15.6059 37.2432 15.5982C36.7983 15.5905 36.7062 15.6751 36.7062 16.1209C36.7062 16.9973 36.7062 17.866 36.7062 18.7424ZM38.601 6.84203C38.1024 6.84203 37.6038 6.84203 37.1051 6.84203C36.8213 6.84203 36.6832 6.97272 36.6909 7.26484C36.7062 7.76454 36.7062 8.26423 36.7062 8.76392C36.7062 9.76331 36.6986 10.7627 36.6986 11.7621C36.6986 12.0311 36.7139 12.2925 37.0898 12.2925C37.972 12.3002 38.8541 12.3386 39.7363 12.3079C40.6108 12.2771 41.2935 11.9081 41.7078 11.0856C42.076 10.3553 41.9993 9.58649 41.9379 8.82542C41.8535 7.71841 40.864 6.71903 39.6749 6.83434C39.3221 6.87278 38.9615 6.84203 38.601 6.84203Z" fill="#24242E"/>
<path d="M26.1037 21.9479C25.9426 22.2401 25.7815 22.5476 25.6051 22.8397C23.718 26.0147 21.8309 29.1973 19.9438 32.3723C18.3943 34.9784 16.8294 37.5691 15.2798 40.1752C14.5894 41.3283 13.922 42.4891 13.2393 43.65C13.0475 43.9805 12.9325 43.9959 12.7407 43.673C11.6361 41.805 10.5391 39.9292 9.42678 38.0534C8.43721 36.3775 7.4323 34.717 6.4504 33.0411C5.4685 31.3806 4.50195 29.7047 3.52772 28.0442C2.40774 26.1377 1.28776 24.2312 0.14477 22.34C-0.0546777 22.0094 -0.0470066 21.7558 0.14477 21.4252C1.55625 19.0651 2.94472 16.6973 4.34085 14.3296C5.32275 12.669 6.31232 11.0085 7.29422 9.34801C8.77474 6.83417 10.2553 4.32802 11.7358 1.81418C12.0503 1.28374 12.3495 0.753299 12.664 0.222856C12.8404 -0.0692721 13.0168 -0.0692721 13.1703 0.192106C14.2519 2.01406 15.3335 3.8437 16.4228 5.66566C17.7192 7.84124 19.008 10.0168 20.3044 12.1924C21.8846 14.8369 23.4649 17.4815 25.0451 20.126C25.3366 20.618 25.6434 21.11 25.9349 21.602C25.9886 21.7019 26.0347 21.8096 26.1037 21.9479ZM12.9785 4.81234C12.8404 4.98915 12.7177 5.11215 12.6256 5.25822C12.0886 6.15766 11.567 7.0648 11.03 7.97193C9.55719 10.455 8.07667 12.9381 6.59615 15.4212C5.40713 17.4277 4.21811 19.4418 3.01376 21.4483C2.82198 21.7634 2.79129 22.0325 3.02143 22.3323C3.09814 22.4323 3.15951 22.5476 3.22855 22.6552C4.60167 24.9769 5.98246 27.2985 7.35559 29.6201C8.73638 31.9572 10.1172 34.2865 11.498 36.6235C11.9276 37.3462 12.3648 38.0688 12.7944 38.7991C12.9478 39.0605 13.0936 39.1066 13.2623 38.8222C13.3007 38.753 13.3467 38.6915 13.3851 38.63C14.9193 36.0162 16.4535 33.4024 17.9954 30.7963C19.6753 27.9443 21.3553 25.0845 23.0199 22.2247C23.1043 22.0786 23.112 21.8096 23.0353 21.6712C21.3476 18.796 19.637 15.9286 17.9263 13.0611C16.3538 10.4089 14.7812 7.76437 13.201 5.11215C13.1549 5.0199 13.0859 4.95072 12.9785 4.81234Z" fill="#24242E"/>
<path d="M60.6323 11.6545C60.6323 9.13294 60.6323 6.60372 60.6323 4.0822C60.6323 3.52101 60.6707 3.48257 61.246 3.48257C62.32 3.48257 63.3939 3.48257 64.4679 3.48257C65.0049 3.48257 65.0739 3.54407 65.0739 4.06682C65.0739 8.20274 65.0662 12.3387 65.0739 16.4823C65.0739 16.982 65.1199 17.474 65.1429 17.9737C65.1966 19.1652 65.0355 20.3337 64.6213 21.4407C64.0613 22.9552 63.1101 24.1545 61.6219 24.8771C60.5173 25.4152 59.3513 25.6305 58.1392 25.6228C57.1727 25.6151 56.1985 25.6766 55.2472 25.4229C53.2911 24.9078 51.8336 23.8162 50.9898 21.9404C50.5065 20.8565 50.3301 19.711 50.3301 18.5348C50.3301 13.7147 50.3301 8.90231 50.3301 4.0822C50.3301 3.52101 50.3838 3.46719 50.9438 3.47488C52.0177 3.48257 53.0917 3.48257 54.1656 3.47488C54.7179 3.47488 54.7486 3.49794 54.7486 4.05145C54.7486 8.7255 54.7333 13.3995 54.7563 18.0813C54.764 19.3113 55.0325 20.5029 55.8072 21.5099C56.2291 22.0558 56.8045 22.3709 57.4949 22.3633C58.0012 22.3556 58.5151 22.3018 58.9984 22.1634C59.8269 21.9251 60.2871 21.2947 60.4252 20.4721C60.5403 19.7956 60.6247 19.1037 60.6323 18.4195C60.6554 16.1671 60.64 13.9146 60.6323 11.6545Z" fill="#24242E"/>
<path d="M82.6332 19.3112C82.6332 20.9486 82.6332 22.5938 82.6332 24.2312C82.6332 24.7617 82.5872 24.7771 82.0732 24.9078C80.562 25.2998 79.0201 25.5612 77.4629 25.6534C75.6985 25.7611 73.9265 25.7534 72.2388 25.1307C70.7737 24.5849 69.7841 23.5701 69.2548 22.0557C68.4647 19.7571 68.0581 17.4124 68.0274 14.9831C67.9967 12.6691 68.2499 10.3859 68.6641 8.11039C69.0477 5.99631 70.2674 4.55873 72.2388 3.81304C74.5632 2.93665 76.9412 2.94434 79.2426 3.86685C80.8842 4.52798 81.9658 5.80412 82.3724 7.55689C82.5411 8.27952 82.5565 9.04828 82.6255 9.79397C82.6562 10.1169 82.5258 10.2706 82.1576 10.2629C80.9916 10.2399 79.8332 10.2475 78.6672 10.2552C78.0459 10.2552 77.9845 10.2014 78.0919 9.60178C78.2146 8.89453 78.0996 8.23339 77.8387 7.57995C77.5319 6.79582 76.8645 6.52675 76.1358 6.373C74.7396 6.0655 73.8498 6.83426 73.2284 8.01814C72.7835 8.87146 72.7835 9.80935 72.7375 10.7165C72.6454 12.5923 72.5764 14.4757 72.6071 16.3592C72.6301 17.766 72.7298 19.1805 73.1747 20.5335C73.75 22.2479 75.1078 22.7783 76.7188 22.5015C77.179 22.4247 77.6316 22.2555 78.0765 22.1172C78.3757 22.0249 78.5291 21.825 78.5215 21.4868C78.5061 20.2414 78.5061 19.0037 78.5138 17.7583C78.5138 17.2586 78.4448 17.1817 77.9385 17.1894C77.4245 17.1894 76.9182 17.1817 76.4042 17.2048C76.1204 17.2125 76.0053 17.0972 76.0053 16.8281C76.0053 15.944 76.0053 15.06 76.0053 14.1759C76.0053 13.9145 76.1281 13.8223 76.3889 13.8223C78.3297 13.83 80.2782 13.83 82.2189 13.8223C82.5641 13.8223 82.6255 13.9914 82.6255 14.2758C82.6178 15.5212 82.6255 16.7589 82.6255 18.0043C82.6332 18.4117 82.6332 18.8653 82.6332 19.3112Z" fill="#24242E"/>
<path d="M93.9788 3.48253C94.7612 3.48253 95.536 3.49791 96.3184 3.47484C96.6943 3.46716 96.8784 3.62091 96.9782 3.96685C97.308 5.1738 97.6532 6.38075 97.9984 7.5877C98.5354 9.45578 99.08 11.3239 99.6093 13.1919C100.131 15.037 100.63 16.8897 101.159 18.7347C101.696 20.6258 102.256 22.517 102.808 24.4081C103.046 25.2384 103.038 25.2461 102.187 25.2461C101.075 25.2461 99.9622 25.2307 98.8499 25.2537C98.4433 25.2614 98.2669 25.1461 98.1749 24.7233C97.8757 23.3857 97.5228 22.0634 97.2083 20.7335C97.1393 20.4413 96.9858 20.3491 96.6943 20.3491C94.8763 20.3645 93.0659 20.3568 91.2479 20.3568C90.8183 20.3568 90.6802 20.4644 90.5805 20.8795C90.2736 22.171 89.9514 23.4625 89.6446 24.7617C89.5756 25.0616 89.4145 25.1922 89.1076 25.1846C87.9416 25.1769 86.7833 25.1846 85.6173 25.1769C85.2107 25.1769 85.1647 25.0846 85.2721 24.6772C85.625 23.378 85.9702 22.0788 86.323 20.7873C86.6299 19.6956 86.9521 18.604 87.2589 17.5047C87.5964 16.2823 87.9263 15.06 88.2561 13.8377C88.7931 11.8774 89.3378 9.91703 89.8824 7.9567C90.2583 6.60369 90.6495 5.25067 91.0254 3.88997C91.1098 3.57478 91.2709 3.45947 91.5931 3.46715C92.3909 3.49791 93.1886 3.48253 93.9788 3.48253ZM93.9941 8.12583C93.9404 8.13351 93.8867 8.14889 93.8407 8.15658C93.81 8.24883 93.764 8.34108 93.741 8.43333C93.6106 9.00221 93.4878 9.57878 93.3497 10.1553C92.8204 12.2617 92.2911 14.3681 91.7618 16.4745C91.6314 17.005 91.7005 17.0972 92.2298 17.0972C93.3267 17.0972 94.4237 17.0972 95.5283 17.0972C95.9042 17.0972 96.0039 16.9742 95.9196 16.6052C95.8275 16.2055 95.7355 15.8057 95.6511 15.406C95.1831 13.1766 94.7152 10.9549 94.2396 8.72546C94.1859 8.51789 94.0708 8.3257 93.9941 8.12583Z" fill="#24242E"/>
<path d="M122.668 16.2055C122.668 13.3841 122.668 10.5705 122.668 7.74915C122.668 7.26483 122.592 7.18795 122.116 7.18795C120.758 7.18795 119.408 7.19564 118.05 7.19564C117.605 7.19564 117.513 7.10339 117.513 6.65751C117.513 5.77344 117.513 4.88937 117.513 4.0053C117.513 3.5671 117.598 3.48254 118.027 3.48254C122.615 3.48254 127.202 3.48254 131.789 3.47485C132.127 3.47485 132.28 3.61323 132.273 3.95917C132.265 4.88168 132.265 5.80419 132.273 6.7267C132.273 7.06495 132.127 7.21102 131.789 7.21102C130.462 7.19564 129.127 7.19564 127.8 7.19564C127.263 7.19564 127.194 7.26483 127.194 7.78758C127.194 10.3091 127.194 12.8306 127.194 15.3598C127.194 18.4579 127.194 21.556 127.194 24.6618C127.194 25.1846 127.118 25.2614 126.596 25.2614C125.461 25.2614 124.318 25.2538 123.182 25.2614C122.714 25.2614 122.645 25.2076 122.645 24.7464C122.645 22.9398 122.645 21.1332 122.645 19.3266C122.661 18.2734 122.661 17.2433 122.668 16.2055Z" fill="#24242E"/>
<path d="M110.993 16.2132C110.993 19.0345 110.993 21.8482 110.993 24.6695C110.993 25.1769 110.932 25.2461 110.425 25.2461C109.29 25.2461 108.147 25.2461 107.012 25.2461C106.551 25.2461 106.467 25.1692 106.467 24.7079C106.467 19.096 106.467 13.4841 106.475 7.87215C106.475 7.22639 106.436 7.18027 105.777 7.18795C104.473 7.19564 103.169 7.19564 101.864 7.19564C101.427 7.19564 101.35 7.11877 101.35 6.68057C101.35 5.78113 101.358 4.88937 101.35 3.98992C101.343 3.64398 101.458 3.47485 101.834 3.47485C106.413 3.48254 110.985 3.47485 115.565 3.47485C115.887 3.47485 116.033 3.61323 116.033 3.93611C116.025 4.85862 116.033 5.78113 116.033 6.70364C116.033 7.0957 115.918 7.19564 115.527 7.19564C114.223 7.19564 112.918 7.19564 111.614 7.18795C111.039 7.18795 111.001 7.22639 111.001 7.78758C110.993 10.6012 110.993 13.4072 110.993 16.2132Z" fill="#24242E"/>
<path d="M134.459 14.322C134.459 10.9011 134.459 7.48008 134.459 4.0668C134.459 3.55173 134.536 3.48254 135.065 3.48254C136.2 3.48254 137.343 3.48254 138.479 3.48254C138.916 3.48254 139 3.55942 139 3.99761C139 10.9164 139 17.8276 139 24.7464C139 25.1769 138.924 25.2538 138.479 25.2538C137.343 25.2538 136.2 25.2538 135.065 25.2538C134.543 25.2538 134.459 25.1846 134.459 24.6618C134.459 21.2178 134.459 17.7737 134.459 14.322Z" fill="#24242E"/>
<path d="M95.8505 36.247C95.8582 36.1163 95.8812 35.9779 95.8812 35.8472C95.8735 34.2098 95.8735 32.5646 95.8582 30.9272C95.8582 30.5813 96.0039 30.4352 96.3491 30.4506C96.6176 30.4583 96.8861 30.4506 97.1546 30.4506C97.5918 30.4583 97.6685 30.5351 97.6685 30.9656C97.6685 32.0188 97.6685 33.0643 97.6685 34.1175C97.6685 35.7704 97.6685 37.4232 97.6685 39.076C97.6685 39.5219 97.5918 39.5988 97.1622 39.6065C96.8324 39.6142 96.4949 39.5911 96.165 39.6142C95.8505 39.6295 95.651 39.4835 95.513 39.2298C94.5387 37.477 93.5645 35.7166 92.5826 33.9715C92.5136 33.8562 92.3832 33.7793 92.2758 33.6793C92.2374 33.8177 92.1607 33.9484 92.1607 34.0868C92.153 35.7242 92.1607 37.3694 92.1607 39.0068C92.1607 39.5219 92.0763 39.6065 91.5624 39.6065C91.2785 39.6065 91.0024 39.5988 90.7185 39.6142C90.4194 39.6295 90.2966 39.4835 90.2966 39.2067C90.2966 38.8377 90.2966 38.461 90.2966 38.092C90.2966 35.7242 90.2966 33.3488 90.2966 30.981C90.2966 30.5121 90.3503 30.4583 90.8259 30.4583C91.0791 30.4583 91.3399 30.489 91.593 30.4506C92.176 30.3583 92.4982 30.6197 92.7667 31.1194C93.6336 32.7568 94.5464 34.3712 95.4363 35.9933C95.5053 36.124 95.5743 36.2624 95.6434 36.3931C95.7047 36.3469 95.7815 36.2931 95.8505 36.247Z" fill="#24242E"/>
<path d="M118.388 35.0323C118.388 33.687 118.388 32.3417 118.388 30.9963C118.388 30.512 118.465 30.4428 118.94 30.4505C120.26 30.4582 121.571 30.4198 122.891 30.4659C123.397 30.4813 123.949 30.5812 124.402 30.7964C125.461 31.2961 125.952 32.5031 125.683 33.6485C125.56 34.1867 125.338 34.6633 124.862 34.9862C124.678 35.1169 124.579 35.286 124.816 35.4474C125.361 35.8164 125.438 36.393 125.476 36.9696C125.514 37.4923 125.499 38.0228 125.553 38.5378C125.576 38.7762 125.683 39.0068 125.783 39.2297C125.883 39.4604 125.814 39.591 125.583 39.5987C125.085 39.6141 124.586 39.6141 124.088 39.591C123.773 39.5757 123.65 39.345 123.627 39.0683C123.597 38.5225 123.574 37.969 123.566 37.4155C123.558 36.4391 123.19 36.0624 122.223 36.0548C121.725 36.0548 121.226 36.0471 120.728 36.0548C120.267 36.0548 120.206 36.1239 120.206 36.5929C120.206 37.4155 120.214 38.2303 120.214 39.0529C120.214 39.5142 120.137 39.591 119.684 39.591C119.431 39.591 119.17 39.591 118.917 39.591C118.465 39.591 118.388 39.5142 118.388 39.0529C118.388 37.723 118.388 36.3776 118.388 35.0323ZM121.625 34.4788C121.932 34.4788 122.246 34.5326 122.538 34.4634C122.876 34.3942 123.236 34.2789 123.505 34.0714C123.873 33.7869 123.903 33.341 123.773 32.9105C123.635 32.4339 123.282 32.1418 122.799 32.1033C122.039 32.0495 121.272 32.0495 120.505 32.0649C120.405 32.0649 120.221 32.2571 120.221 32.3724C120.191 32.949 120.206 33.5255 120.206 34.0944C120.206 34.3635 120.359 34.4788 120.62 34.4788C120.965 34.4788 121.295 34.4788 121.625 34.4788Z" fill="#24242E"/>
<path d="M62.9797 35.0247C63.0334 33.9407 63.1869 32.8952 63.7929 31.9727C64.4219 31.0271 65.3348 30.5121 66.4317 30.2968C67.7281 30.0431 68.9172 30.2814 69.9988 31.0271C70.8119 31.5883 71.2568 32.4032 71.4793 33.3334C71.7478 34.4404 71.7631 35.5705 71.4946 36.6852C71.1725 38.0151 70.4284 39.0145 69.1013 39.5142C67.4136 40.1446 65.8411 39.9601 64.4219 38.8223C63.7699 38.2996 63.4093 37.5693 63.2252 36.7698C63.1025 36.2009 63.0564 35.6089 62.9797 35.0247ZM64.9129 35.2399C65.0049 35.6166 65.0893 36.2239 65.2964 36.7928C65.6186 37.6692 66.3243 38.1381 67.2372 38.1843C68.1654 38.2381 68.9172 37.8306 69.3237 36.9696C69.9451 35.6551 69.9451 34.3251 69.2777 33.0259C68.6333 31.7805 66.9073 31.45 65.8257 32.5032C65.1046 33.195 64.9972 34.0868 64.9129 35.2399Z" fill="#24242E"/>
<path d="M76.4118 39.8832C75.3225 39.8447 74.3022 39.6679 73.4661 38.8838C72.9598 38.4072 72.7527 37.7998 72.6453 37.1464C72.6069 36.9081 72.745 36.7851 72.9751 36.7774C73.374 36.7697 73.7729 36.7466 74.1642 36.7851C74.3022 36.8004 74.517 36.9465 74.5477 37.0772C74.7625 37.9382 75.4145 38.1996 76.1586 38.238C76.6266 38.2611 77.1175 38.1381 77.5701 37.9843C77.946 37.8613 78.2221 37.5231 78.2145 37.108C78.2068 36.6851 77.9076 36.4007 77.5241 36.2777C76.8951 36.0778 76.243 35.9471 75.614 35.7396C74.9543 35.5243 74.2179 35.3859 73.6655 34.9939C72.185 33.9484 72.5916 31.3038 74.2792 30.5889C75.5756 30.0431 76.8951 30.0277 78.1761 30.612C79.0583 31.0117 79.5723 31.7497 79.7257 32.7107C79.7947 33.1258 79.695 33.218 79.2808 33.2257C79.1427 33.2257 78.9969 33.2104 78.8588 33.2257C78.2912 33.3026 77.9076 33.1796 77.6775 32.5646C77.5701 32.2802 77.1405 32.0803 76.8183 31.9265C76.2353 31.6575 75.2534 31.865 74.8776 32.2648C74.3789 32.8029 74.54 33.5102 75.2458 33.7177C75.9899 33.9407 76.757 34.0944 77.5011 34.3174C78.0227 34.4711 78.552 34.6402 79.0353 34.8862C79.6029 35.1707 79.9175 35.6857 80.0172 36.3161C80.2933 38.1688 79.3114 39.4142 77.5011 39.7371C77.1482 39.814 76.7723 39.837 76.4118 39.8832Z" fill="#24242E"/>
<path d="M134.405 30.4428C134.574 30.4428 134.735 30.4428 134.904 30.4428C135.487 30.4351 135.563 30.5197 135.748 31.0578C136.208 32.4108 136.691 33.7562 137.151 35.1092C137.573 36.3392 137.995 37.5769 138.394 38.8146C138.64 39.5833 138.617 39.5833 137.796 39.591C136.185 39.6064 136.645 39.6372 136.169 38.2918C135.985 37.7614 136.008 37.7306 135.441 37.7306C134.712 37.7306 133.983 37.7383 133.254 37.723C132.917 37.7153 132.694 37.7998 132.61 38.1611C132.533 38.484 132.395 38.7915 132.303 39.1144C132.211 39.445 132.019 39.6064 131.667 39.5987C131.298 39.5833 130.922 39.591 130.554 39.5987C130.232 39.6064 130.132 39.468 130.24 39.1682C130.723 37.7921 131.214 36.4238 131.69 35.0477C132.127 33.7946 132.549 32.5338 132.986 31.2731C133.055 31.0655 133.124 30.8579 133.247 30.6811C133.316 30.5735 133.469 30.4736 133.6 30.4582C133.868 30.4274 134.137 30.4505 134.405 30.4428C134.405 30.4505 134.405 30.4428 134.405 30.4428ZM134.359 36.1316C134.605 36.1316 134.842 36.1393 135.088 36.1316C135.326 36.1239 135.441 36.0009 135.364 35.7472C135.203 35.2322 135.042 34.7248 134.888 34.2097C134.789 33.8792 134.712 33.5409 134.597 33.218C134.559 33.1181 134.428 33.0489 134.328 32.9874C134.313 32.9797 134.198 33.0643 134.183 33.1258C133.914 34.0022 133.646 34.8862 133.385 35.7703C133.316 35.9932 133.446 36.1162 133.661 36.1239C133.899 36.1393 134.129 36.1316 134.359 36.1316Z" fill="#24242E"/>
<path d="M88.1945 39.6064C87.1129 39.6064 87.1129 39.6064 86.8598 38.5379C86.8367 38.4379 86.8061 38.338 86.783 38.2381C86.6833 37.8691 86.4839 37.6999 86.0696 37.723C85.3332 37.7614 84.5891 37.7461 83.845 37.723C83.5228 37.7153 83.3387 37.846 83.239 38.1381C83.1239 38.4764 82.9935 38.8146 82.9092 39.1606C82.8324 39.4681 82.656 39.5911 82.3722 39.5988C81.9733 39.6064 81.5821 39.6064 81.1832 39.5988C80.838 39.5911 80.7459 39.4604 80.861 39.1298C81.2982 37.8767 81.7431 36.6237 82.1881 35.3706C82.7097 33.8869 83.2313 32.4032 83.7376 30.9195C83.8604 30.5659 84.0521 30.3967 84.4434 30.4352C84.8346 30.4659 85.2335 30.4659 85.6324 30.4352C86.0083 30.4121 86.1924 30.5889 86.3074 30.9195C86.9902 32.9413 87.6729 34.9632 88.371 36.985C88.6088 37.6846 88.8849 38.3687 89.1227 39.0683C89.2685 39.4988 89.1764 39.6064 88.7392 39.6064C88.5551 39.6064 88.371 39.6064 88.1945 39.6064ZM85.0571 32.8568C84.9727 32.9259 84.9113 32.949 84.896 32.9874C84.5891 33.9253 84.2746 34.8555 83.9908 35.7934C83.9217 36.024 84.0828 36.1393 84.3206 36.1393C84.7272 36.1317 85.1414 36.1393 85.548 36.1317C85.9546 36.124 86.0466 35.9933 85.9239 35.6012C85.7321 34.9939 85.5557 34.3789 85.3639 33.7639C85.2795 33.4794 85.1721 33.1873 85.0571 32.8568Z" fill="#24242E"/>
<path d="M44.0936 30.4428C45.1829 30.4428 45.1983 30.4428 45.5588 31.4576C46.0881 32.9644 46.5867 34.4865 47.1007 35.9933C47.4612 37.0311 47.8371 38.0612 48.1977 39.099C48.3357 39.4911 48.2437 39.6064 47.8218 39.6064C47.4536 39.6064 47.0777 39.5987 46.7095 39.6064C46.3873 39.6141 46.1878 39.4834 46.1188 39.1375C46.0498 38.7915 45.9117 38.4533 45.812 38.1074C45.7276 37.8383 45.5588 37.723 45.2673 37.723C44.4465 37.7307 43.6334 37.7307 42.8126 37.723C42.5748 37.723 42.429 37.8075 42.3523 38.0382C42.2142 38.4533 42.0608 38.853 41.9227 39.2682C41.846 39.4988 41.7079 39.5987 41.4701 39.5911C41.1019 39.5834 40.726 39.5911 40.3578 39.5911C39.9052 39.5911 39.8055 39.4527 39.9513 39.0222C40.2428 38.2073 40.5419 37.3924 40.8258 36.5698C41.2937 35.2399 41.7463 33.9176 42.2066 32.5877C42.3983 32.0419 42.6055 31.5114 42.7819 30.9656C42.9046 30.5812 43.1117 30.3813 43.5413 30.4352C43.7331 30.4659 43.9172 30.4428 44.0936 30.4428ZM44.1243 32.8952C44.0783 32.9029 44.0323 32.9106 43.9786 32.9182C43.6794 33.8715 43.3649 34.8248 43.0811 35.7857C43.012 36.0163 43.1654 36.1393 43.4109 36.1393C43.8558 36.1393 44.3008 36.147 44.7534 36.147C45.0525 36.147 45.1292 35.9779 45.0449 35.7088C44.8301 34.9862 44.6153 34.2636 44.3928 33.5486C44.3161 33.3257 44.2087 33.1104 44.1243 32.8952Z" fill="#24242E"/>
<path d="M112.965 30.4429C114.1 30.4429 114.085 30.4506 114.453 31.5422C115.136 33.564 115.826 35.5782 116.524 37.6C116.7 38.1228 116.9 38.6301 117.076 39.1529C117.191 39.4835 117.092 39.6065 116.746 39.6141C116.34 39.6218 115.926 39.6141 115.519 39.6141C115.228 39.6141 115.059 39.4758 114.99 39.1683C114.913 38.807 114.775 38.461 114.675 38.1074C114.599 37.846 114.43 37.7384 114.161 37.7384C113.333 37.7461 112.497 37.723 111.668 37.7538C111.522 37.7614 111.315 37.8998 111.246 38.0382C111.07 38.4149 110.932 38.8223 110.809 39.2221C110.717 39.5219 110.541 39.6218 110.241 39.6141C109.912 39.5988 109.574 39.6141 109.244 39.6065C108.746 39.6065 108.661 39.4681 108.83 38.9915C109.237 37.846 109.651 36.7082 110.05 35.5628C110.579 34.056 111.101 32.5493 111.63 31.0425C111.822 30.489 111.891 30.4429 112.489 30.4506C112.658 30.4506 112.811 30.4429 112.965 30.4429ZM112.957 32.8952C112.919 32.8952 112.88 32.9029 112.842 32.9029C112.773 33.1258 112.704 33.3488 112.627 33.564C112.405 34.2559 112.175 34.9478 111.967 35.6397C111.86 35.9933 111.96 36.124 112.313 36.1317C112.735 36.1394 113.156 36.1394 113.571 36.1394C113.862 36.1394 113.97 35.9933 113.893 35.7242C113.67 34.9632 113.448 34.2098 113.21 33.4564C113.156 33.2642 113.049 33.0797 112.957 32.8952Z" fill="#24242E"/>
<path d="M36.4073 37.0235C36.53 36.8006 36.6527 36.6545 36.6988 36.4854C37.136 34.9094 37.5579 33.3258 37.9798 31.7498C38.0642 31.427 38.1563 31.1118 38.256 30.7966C38.3327 30.5352 38.5322 30.4429 38.7853 30.4429C39.1458 30.4429 39.4987 30.4429 39.8592 30.4506C40.2658 30.4583 40.3579 30.5506 40.2351 30.9349C39.9053 31.9728 39.5601 32.9952 39.2149 34.0254C38.6472 35.7243 38.0719 37.4156 37.5196 39.1145C37.3968 39.4835 37.1974 39.6296 36.8215 39.6065C36.5147 39.5912 36.2001 39.6527 35.9086 39.5912C35.7169 39.5527 35.4484 39.4066 35.3947 39.2375C34.9881 38.1228 34.6276 36.9928 34.2517 35.8627C33.8068 34.502 33.3618 33.1413 32.9092 31.7806C32.8019 31.4654 32.6714 31.1579 32.5794 30.8427C32.5104 30.6044 32.5794 30.4353 32.8709 30.4353C33.3312 30.4353 33.7914 30.4199 34.2517 30.4276C34.5815 30.4353 34.6506 30.7274 34.7196 30.9657C34.9344 31.7114 35.1339 32.4648 35.341 33.2182C35.6555 34.402 35.97 35.5936 36.2922 36.7775C36.2845 36.8467 36.3306 36.8928 36.4073 37.0235Z" fill="#24242E"/>
<path d="M59.1214 36.8774C59.2441 36.4546 59.3668 36.0241 59.4819 35.6012C59.9038 34.0714 60.3181 32.5416 60.7476 31.0118C60.8857 30.5121 61.0008 30.4429 61.4994 30.4506C61.8446 30.4582 62.1898 30.4506 62.535 30.4506C62.8265 30.4506 62.9262 30.5736 62.8265 30.8657C62.2742 32.5031 61.7372 34.1406 61.1926 35.778C60.8167 36.9004 60.4331 38.0305 60.0496 39.1529C59.9345 39.4835 59.735 39.6526 59.3592 39.6141C59.0677 39.5834 58.7685 39.5988 58.477 39.6141C58.1625 39.6295 57.9784 39.4758 57.8786 39.1836C57.4951 38.0074 57.1115 36.8236 56.7203 35.6474C56.2677 34.279 55.8074 32.9029 55.3548 31.5345C55.2705 31.2885 55.1861 31.0502 55.1094 30.8042C55.0403 30.5889 55.1017 30.4506 55.3548 30.4429C55.8151 30.4429 56.2754 30.4352 56.7356 30.4429C57.0041 30.4429 57.1499 30.6043 57.2189 30.8503C57.6332 32.3955 58.0474 33.9407 58.4616 35.4859C58.5537 35.8319 58.6381 36.1778 58.7531 36.5161C58.7992 36.6544 58.9066 36.7774 58.9909 36.9081C59.037 36.9004 59.0753 36.8851 59.1214 36.8774Z" fill="#24242E"/>
<path d="M104.81 35.8472C104.81 34.7863 104.81 33.7178 104.81 32.6569C104.81 32.1418 104.749 32.088 104.235 32.088C103.683 32.088 103.138 32.088 102.586 32.0957C102.248 32.1034 102.087 31.9727 102.11 31.6191C102.125 31.35 102.102 31.0809 102.118 30.8119C102.133 30.5505 102.271 30.4275 102.54 30.4275C104.672 30.4352 106.812 30.4429 108.945 30.4429C109.306 30.4429 109.467 30.5966 109.451 30.9502C109.444 31.1809 109.436 31.4115 109.451 31.6421C109.474 31.9804 109.306 32.1034 108.991 32.1034C108.431 32.0957 107.863 32.0957 107.303 32.0957C106.805 32.0957 106.72 32.1726 106.72 32.6723C106.72 34.771 106.72 36.8774 106.72 38.9761C106.72 39.5373 106.651 39.6141 106.076 39.6065C105.823 39.6065 105.562 39.6065 105.309 39.6065C104.887 39.5988 104.803 39.5142 104.803 39.076C104.803 37.9997 104.803 36.9235 104.81 35.8472C104.803 35.8472 104.803 35.8472 104.81 35.8472Z" fill="#24242E"/>
<path d="M49.5325 35.0093C49.5325 33.6794 49.5325 32.3494 49.5325 31.0118C49.5325 30.489 49.5938 30.4352 50.0925 30.4429C50.3763 30.4506 50.6524 30.4429 50.9363 30.4429C51.3275 30.4506 51.4349 30.5582 51.4349 30.9503C51.4272 33.0336 51.4272 35.1246 51.4196 37.208C51.4196 37.9152 51.4502 37.946 52.1483 37.9383C53.2223 37.9383 54.2962 37.9383 55.3702 37.9383C55.8151 37.9383 55.8841 38.0075 55.8688 38.4534C55.8688 38.6071 55.8611 38.7609 55.8688 38.9146C55.8764 39.5527 55.8304 39.5988 55.2167 39.5988C53.5061 39.5988 51.7954 39.5988 50.0848 39.5988C49.6092 39.5988 49.5401 39.5296 49.5401 39.0376C49.5325 37.7 49.5325 36.3547 49.5325 35.0093Z" fill="#24242E"/>
<path d="M127.202 35.0169C127.202 33.6716 127.202 32.3263 127.202 30.9809C127.202 30.5351 127.287 30.4428 127.739 30.4428C128.023 30.4428 128.299 30.4428 128.583 30.4351C128.989 30.4274 129.097 30.5197 129.105 30.9502C129.105 31.3961 129.105 31.8496 129.105 32.2955C129.105 34.548 129.105 36.8004 129.105 39.0529C129.105 39.5141 129.013 39.6064 128.537 39.5987C128.284 39.5987 128.023 39.5987 127.77 39.5987C127.279 39.5987 127.202 39.5141 127.202 39.0068C127.202 37.6768 127.202 36.3469 127.202 35.0169Z" fill="#24242E"/>
<path d="M101.144 35.0093C101.144 36.37 101.144 37.723 101.144 39.0837C101.144 39.545 101.074 39.6142 100.614 39.6065C100.323 39.5988 100.024 39.5988 99.732 39.6065C99.4022 39.6142 99.2334 39.4758 99.2334 39.1299C99.2334 36.3854 99.2334 33.6486 99.2334 30.9042C99.2334 30.5813 99.3868 30.4429 99.7013 30.4429C100.062 30.4429 100.415 30.4352 100.775 30.4275C101.143 30.4198 101.136 30.6889 101.136 30.9349C101.136 31.719 101.136 32.4955 101.128 33.2796C101.136 33.8562 101.136 34.4328 101.144 35.0093C101.144 35.0093 101.136 35.0093 101.144 35.0093Z" fill="#24242E"/>
<path d="M9.00614 17.5739C9.3897 17.5739 9.77325 17.5431 10.1568 17.5893C10.3256 17.6046 10.5557 17.7353 10.6247 17.8737C11.016 18.704 11.3765 19.5573 11.737 20.4029C12.0439 21.1179 12.3354 21.8405 12.6422 22.5554C12.6883 22.6554 12.811 22.7476 12.9107 22.7707C12.9644 22.7861 13.0795 22.6477 13.1255 22.5554C13.8313 21.041 14.537 19.5188 15.2427 18.0044C15.3808 17.7123 15.5879 17.5585 15.9408 17.5662C16.5928 17.5893 17.2449 17.5739 17.8969 17.5739C18.3265 17.5739 18.4416 17.7276 18.2728 18.1197C17.8586 19.1114 17.429 20.0877 17.0148 21.0794C16.2016 23.0398 15.3885 25.0001 14.5753 26.9604C14.1151 28.0828 13.6548 29.2052 13.1792 30.3199C13.1485 30.3891 13.0641 30.4429 13.0028 30.5044C12.9261 30.4275 12.8187 30.366 12.7803 30.2738C12.4428 29.505 12.1053 28.7286 11.7754 27.9521C10.9393 25.9841 10.1108 24.0161 9.27463 22.0557C8.70697 20.7181 8.12397 19.3805 7.54864 18.0428C7.41056 17.7199 7.51795 17.5739 7.88617 17.5739C8.26205 17.5739 8.63793 17.5739 9.00614 17.5739Z" fill="#24242E"/>
</svg>
