<svg width="65" height="63" viewBox="0 0 65 63" fill="none" xmlns="http://www.w3.org/2000/svg">
<path d="M61.9501 56.1616H57.4069V31.6642C57.4069 31.1383 56.9806 30.7121 56.4548 30.7121C55.9289 30.7121 55.5026 31.1383 55.5026 31.6642V56.1616H41.5194V24.2149C41.5194 23.9694 41.7191 23.7697 41.9645 23.7697H55.0574C55.3029 23.7697 55.5025 23.9694 55.5025 24.2149V27.2133C55.5025 27.7392 55.9288 28.1654 56.4547 28.1654C56.9805 28.1654 57.4068 27.7392 57.4068 27.2133V24.2149C57.4068 22.9193 56.3528 21.8654 55.0574 21.8654H49.4631V14.8066L60.7698 9.30919C61.3902 9.00742 61.7755 8.39145 61.7755 7.70171C61.7755 7.01198 61.3901 6.39613 60.7698 6.09436L50.1276 0.919876C49.57 0.648704 48.9235 0.683362 48.398 1.0123C47.8725 1.34111 47.5588 1.90757 47.5588 2.52748V21.8655H41.9645C40.6689 21.8655 39.6151 22.9195 39.6151 24.215V34.4496H26.0769C24.7815 34.4496 23.7275 35.5036 23.7275 36.799V45.2202H10.1894C8.89383 45.2202 7.83999 46.2741 7.83999 47.5697V56.1618H3.05005C1.36817 56.1616 0 57.5298 0 59.2115C0 60.8933 1.36817 62.2613 3.04992 62.2613H61.95C63.6317 62.2613 64.9999 60.8933 64.9999 59.2115C64.9999 57.5298 63.6318 56.1616 61.9501 56.1616ZM49.4632 2.71423L59.7208 7.70171L49.4632 12.6892V7.70171V2.71423ZM9.74429 47.5696C9.74429 47.324 9.94398 47.1243 10.1894 47.1243H23.7275V49.6472C23.7275 50.1731 24.1538 50.5993 24.6797 50.5993C25.2055 50.5993 25.6318 50.1731 25.6318 49.6472V36.7989C25.6318 36.5533 25.8315 36.3538 26.0769 36.3538H39.6151V56.1615H25.6318V54.0986C25.6318 53.5727 25.2055 53.1465 24.6797 53.1465C24.1538 53.1465 23.7275 53.5727 23.7275 54.0986V56.1615H9.74429V47.5696ZM61.9501 60.3572H3.04992C2.4182 60.3572 1.9043 59.8433 1.9043 59.2117C1.9043 58.5801 2.4182 58.066 3.04992 58.066H61.95C62.5817 58.066 63.0956 58.5801 63.0956 59.2117C63.0956 59.8433 62.5818 60.3572 61.9501 60.3572Z" fill="#9898A7"/>
</svg>
